<svg height="512" viewBox="0 0 512 512" width="512" xmlns="http://www.w3.org/2000/svg"><g><path d="m448 336v16a24.006 24.006 0 0 1 -24 24h-336a24.006 24.006 0 0 1 -24-24v-16z" fill="#2d2d30"/><path d="m448 104v232h-384v-232a24.006 24.006 0 0 1 24-24h336a24.006 24.006 0 0 1 24 24z" fill="#83d8f4"/><g><rect fill="#3d9ae2" height="176" rx="24" width="128" x="16" y="256"/><path d="m96 280h-32l-8-24h48z" fill="#57565c"/><rect fill="#57565c" height="256" rx="24" width="192" x="304" y="176"/><path d="m328 200h144v184h-144z" fill="#3d9ae2"/><circle cx="392" cy="408" fill="#e0e0e2" r="8"/><path d="m288 408h-64l8-32h48z" fill="#e0e0e2"/><path d="m320 430.62v1.38h-128v-24h112" fill="#2d2d30"/></g><g><path d="m64 400h-24a8 8 0 0 0 0 16h24a8 8 0 0 0 0-16z"/><path d="m96 400h-8a8 8 0 0 0 0 16h8a8 8 0 0 0 0-16z"/><path d="m472 168h-16v-64a32.042 32.042 0 0 0 -32-32h-336a32.036 32.036 0 0 0 -32 32v144h-16a32.036 32.036 0 0 0 -32 32v128a32.036 32.036 0 0 0 32 32h80a32.042 32.042 0 0 0 32-32v-24h69.75l-4 16h-25.75a8 8 0 0 0 -8 8v24a8 8 0 0 0 8 8h280a32.042 32.042 0 0 0 32-32v-208a32.042 32.042 0 0 0 -32-32zm-336 240a16.021 16.021 0 0 1 -16 16h-80a16.021 16.021 0 0 1 -16-16v-128a16.021 16.021 0 0 1 16-16h10.23l6.18 18.53a8 8 0 0 0 7.59 5.47h32a8 8 0 0 0 7.59-5.47l6.18-18.53h10.23a16.021 16.021 0 0 1 16 16zm-68.9-144h25.8l-2.67 8h-20.46zm84.9 104v-24h144v24zm144 16v16h-1.75l-4-16zm-18.25 16h-43.5l4-16h35.5zm-77.75 24v-8h97.01a31.971 31.971 0 0 0 3.3 8zm96-224v128h-144v-48a32.042 32.042 0 0 0 -32-32h-48v-144a16.021 16.021 0 0 1 16-16h336a16.021 16.021 0 0 1 16 16v64h-112a32.042 32.042 0 0 0 -32 32zm192 208a16.021 16.021 0 0 1 -16 16h-144a16.021 16.021 0 0 1 -16-16v-208a16.021 16.021 0 0 1 16-16h144a16.021 16.021 0 0 1 16 16z"/><path d="m472 192h-144a8 8 0 0 0 -8 8v184a8 8 0 0 0 8 8h144a8 8 0 0 0 8-8v-184a8 8 0 0 0 -8-8zm-8 184h-128v-168h128z"/><circle cx="392" cy="408" r="8"/></g></g></svg>